<svg xmlns="http://www.w3.org/2000/svg" viewBox="0 0 800 600" role="img" aria-labelledby="title desc">
  <title id="title">Ilustração botânica neutra</title>
  <desc id="desc">Folhas estilizadas sobre um fundo verde suave, usada quando não existe fotografia validada.</desc>
  <defs>
    <linearGradient id="bg" x1="0" y1="0" x2="1" y2="1">
      <stop offset="0" stop-color="#edf4ea"/>
      <stop offset="1" stop-color="#dce9d8"/>
    </linearGradient>
    <linearGradient id="leaf" x1="0" y1="0" x2="1" y2="1">
      <stop offset="0" stop-color="#789778"/>
      <stop offset="1" stop-color="#496d4e"/>
    </linearGradient>
  </defs>
  <rect width="800" height="600" fill="url(#bg)"/>
  <circle cx="665" cy="95" r="155" fill="#f6f0d5" opacity=".65"/>
  <path d="M397 512C400 390 432 277 518 169" fill="none" stroke="#496d4e" stroke-width="13" stroke-linecap="round"/>
  <path d="M444 348C348 363 283 324 257 231C350 216 422 258 444 348Z" fill="url(#leaf)"/>
  <path d="M469 285C466 197 516 134 609 106C621 199 565 269 469 285Z" fill="#638567"/>
  <path d="M401 428C335 447 276 429 230 370C301 337 373 359 401 428Z" fill="#88a383"/>
  <path d="M445 349C388 313 332 276 276 240M470 285C511 228 552 176 594 126M400 428C346 406 299 388 249 375" fill="none" stroke="#dce9d8" stroke-width="5" stroke-linecap="round" opacity=".75"/>
  <path d="M0 528C177 481 292 509 414 557C544 609 678 565 800 521V600H0Z" fill="#cbdcc7" opacity=".7"/>
</svg>
